<svg id="visual" viewBox="0 0 900 600" width="900" height="600" xmlns="http://www.w3.org/2000/svg" xmlns:xlink="http://www.w3.org/1999/xlink" version="1.1"><g transform="translate(876.0558036821977 -46.28663743205499)"><path d="M208.4 -318.3C305.9 -304.8 445.2 -321.1 512.3 -273.1C579.4 -225 574.2 -112.5 488.6 -49.4C403 13.7 237 27.3 142.2 27.3C47.3 27.3 23.7 13.7 11.8 55.8C0 98 0 196 -55.5 292.1C-111 388.3 -222 482.5 -316 487.8C-409.9 493 -486.9 409.3 -505.5 313.1C-524.2 217 -484.6 108.5 -456.4 16.3C-428.3 -76 -411.6 -152 -373.5 -214.5C-335.4 -277 -276 -326 -210.2 -357.8C-144.3 -389.7 -72.2 -404.3 -8.3 -389.9C55.5 -375.5 111 -331.9 208.4 -318.3" fill="#af8cbd"></path></g></svg>