<svg id="visual" viewBox="0 0 900 600" width="900" height="600" xmlns="http://www.w3.org/2000/svg" xmlns:xlink="http://www.w3.org/1999/xlink" version="1.1"><g transform="translate(905.8331584546847 50.297960339935514)"><path d="M400.5 -702.7C517.7 -626.1 610.5 -516 633.4 -393.4C656.3 -270.7 609.4 -135.3 622.1 7.3C634.8 150 707.1 300 675.8 408.1C644.4 516.2 509.5 582.4 379.6 633.9C249.7 685.4 124.8 722.2 15.6 695.2C-93.7 668.2 -187.3 577.5 -308 520.6C-428.7 463.8 -576.3 440.9 -643.3 359.8C-710.3 278.7 -696.7 139.3 -687.6 5.3C-678.5 -128.8 -674 -257.7 -616.6 -355.5C-559.3 -453.4 -449.1 -520.3 -337.6 -600.2C-226 -680.1 -113 -773.1 14.3 -797.9C141.7 -822.7 283.3 -779.4 400.5 -702.7" fill="#c69fd5"></path></g></svg>